<svg width="21" height="20" viewBox="0 0 21 20" fill="none" xmlns="http://www.w3.org/2000/svg">
<path d="M0.468592 0.0309116C0.599414 0.00269977 1.74176 0.0114072 1.93128 0.0125274C3.35648 0.0209523 4.77083 0.0567418 6.19791 0.0551698L16.1605 0.052793C17.4098 0.055311 19.1882 -0.0572208 20.3863 0.0389366C20.4331 1.14671 20.4028 2.41863 20.4016 3.54258L20.4006 9.44235L20.4013 16.319C20.4017 17.5082 20.4333 18.7923 20.3962 19.9723L19.4792 19.9745C13.0182 19.9621 6.46752 20.04 0.0172792 19.9713C0.0177808 18.2671 -0.0407975 0.322627 0.0549672 0.109494C0.158492 0.0200157 0.325322 0.0354065 0.468592 0.0309116Z" fill="#1A4E9D"/>
<path d="M10.2002 12.1128C10.7235 11.4072 11.8009 10.212 12.401 9.52051L12.398 12.1024L17.1666 12.1015L17.1615 16.7746L14.9456 16.7753L3.20642 16.7781L3.20855 12.1078C4.79315 12.0895 6.40078 12.1029 7.98656 12.1041L7.99214 9.55308C8.37693 9.8705 9.82033 11.6431 10.2002 12.1128Z" fill="#FEFEFE"/>
<path d="M3.20695 3.1709L17.1687 3.17579L17.166 7.82844L14.5938 7.82848L12.3817 7.8299C11.6768 8.6747 10.924 9.60911 10.1953 10.4233C9.63556 9.84765 8.5759 8.4909 8.01614 7.82721L3.20667 7.82863L3.20695 3.1709Z" fill="#FEFEFE"/>
</svg>
