<svg width="93" height="20" viewBox="0 0 93 20" fill="none" xmlns="http://www.w3.org/2000/svg">
<path d="M0.468592 0.0309116C0.599414 0.00269977 1.74176 0.0114072 1.93128 0.0125274C3.35648 0.0209523 4.77083 0.0567418 6.19791 0.0551698L16.1605 0.052793C17.4098 0.0553111 19.1882 -0.0572209 20.3863 0.0389366C20.4331 1.14671 20.4028 2.41863 20.4016 3.54258L20.4006 9.44235L20.4013 16.319C20.4017 17.5082 20.4333 18.7923 20.3962 19.9723L19.4792 19.9745C13.0182 19.9621 6.46752 20.04 0.0172792 19.9713C0.0177808 18.2671 -0.0407975 0.322627 0.0549672 0.109494C0.158492 0.0200157 0.325322 0.0354065 0.468592 0.0309116Z" fill="#1A4E9D"/>
<path d="M10.2002 12.1128C10.7235 11.4072 11.8009 10.212 12.401 9.52051L12.398 12.1024L17.1666 12.1015L17.1615 16.7746L14.9456 16.7753L3.20642 16.7781L3.20855 12.1078C4.79315 12.0895 6.40078 12.1029 7.98656 12.1041L7.99214 9.55308C8.37693 9.8705 9.82033 11.6431 10.2002 12.1128Z" fill="#FEFEFE"/>
<path d="M3.20695 3.1709L17.1687 3.17579L17.166 7.82844L14.5938 7.82848L12.3817 7.8299C11.6768 8.6747 10.924 9.60911 10.1953 10.4233C9.63556 9.84765 8.5759 8.4909 8.01614 7.82721L3.20667 7.82863L3.20695 3.1709Z" fill="#FEFEFE"/>
<path d="M32.4439 7.67243C32.5591 7.52986 32.6618 7.32498 32.7639 7.1659C34.0546 5.15619 35.3406 3.14253 36.6466 1.14285C36.7284 1.01761 36.9341 0.720997 37.0849 0.703573C37.8122 0.619521 38.5689 0.676038 39.3017 0.673233C39.5122 0.672824 39.8415 0.723001 39.9781 0.874707C40.1217 1.6258 40.0664 3.61094 40.0667 4.44266L40.0634 11.1431L40.0632 16.062C40.0664 16.9284 40.1199 18.5697 39.978 19.3654C39.6947 19.638 36.7015 19.6175 36.6357 19.4075C36.4216 18.7241 36.5149 17.3711 36.5182 16.5785L36.5282 12.1318C36.5354 10.7612 36.5008 9.3746 36.5345 8.00651C35.3808 9.76888 34.3238 11.6291 33.1591 13.3889C33.0207 13.598 32.6694 14.2352 32.4065 14.2283C31.9369 13.8373 31.2352 12.5083 30.8527 11.9494C29.9908 10.6901 29.2205 9.28141 28.3429 8.03997C28.383 8.52688 28.3477 9.27797 28.3456 9.78959L28.3374 13.182L28.3389 17.1162C28.3398 17.5765 28.4377 19.1543 28.2048 19.4562C27.999 19.5933 25.1821 19.6069 24.9891 19.4055C24.8307 18.5689 24.9002 16.0946 24.9007 15.0876L24.894 6.83111L24.8902 2.73696C24.8901 2.18689 24.8689 1.5009 24.9234 0.951294C24.9345 0.839233 25.0966 0.748168 25.1948 0.685334C25.6128 0.663947 27.2427 0.634046 27.7554 0.717886C27.8911 0.740073 28.039 0.867995 28.1111 0.981478C29.4947 3.15778 31.1387 5.48128 32.4439 7.67243Z" fill="black"/>
<path d="M68.1513 0.681703C68.5998 0.649246 69.3086 0.671203 69.7742 0.671165L72.8304 0.670934L76.6191 0.670981C77.2867 0.670821 78.6376 0.597868 79.2116 0.778134C79.4827 1.04179 79.3928 3.29715 79.3928 3.83616L79.3909 8.50692L79.3956 15.4033C79.3966 16.5527 79.399 17.7015 79.3938 18.8513C79.3909 19.4242 79.2698 19.5221 78.6906 19.5364C78.0471 19.5521 77.4003 19.5392 76.7563 19.5374L73.2094 19.5352L69.9408 19.537C69.4501 19.5392 68.9467 19.5811 68.4583 19.5553C68.2908 19.5465 68.0874 19.5165 67.961 19.3964C67.6691 19.1194 67.7992 17.1005 67.7964 16.6452C67.7969 16.2807 67.7235 15.8475 68.2194 15.8207C70.712 15.6862 73.3235 15.9263 75.8057 15.7781C75.8942 15.126 75.8497 12.8625 75.8029 12.1638C74.5726 12.0608 73.1962 12.1619 71.9522 12.1316C71.4175 12.1185 70.5815 12.1812 70.0927 12.0359C69.8547 11.87 69.8868 8.99303 70.0028 8.70582C70.104 8.59988 70.4651 8.55474 70.6108 8.55079C72.3379 8.50433 74.0744 8.58684 75.8 8.50014C75.8885 7.77701 75.8592 5.29085 75.801 4.51674C75.1499 4.44986 74.0734 4.47 73.3916 4.46873L68.7768 4.47608C68.5606 4.47457 68.0495 4.44967 67.8986 4.2976C67.7301 3.8763 67.7959 1.52134 67.8465 0.946845C67.8579 0.820795 68.0344 0.737261 68.1513 0.681703Z" fill="black"/>
<path d="M83.9466 0.682242C86.356 0.551034 88.9537 0.767221 91.3777 0.672014C91.7439 0.657645 92.5706 0.65515 92.8918 0.798549C92.9117 0.885024 92.9273 0.972333 92.9396 1.06022C93.0286 1.68353 92.9931 2.79042 92.9926 3.46959L92.987 7.61989L92.9718 14.9502C92.9709 15.5928 93.0504 19.14 92.8403 19.4179C92.6004 19.53 92.3477 19.5408 92.0875 19.5443C91.7676 19.5487 89.7784 19.6098 89.6445 19.4778C89.4931 19.3282 89.4543 19.138 89.4372 18.9323C89.3994 18.4749 89.4429 17.9951 89.4448 17.5352L89.4415 14.8267C89.442 11.5038 89.4812 8.14219 89.4472 4.82408C89.4595 4.67205 89.4552 4.58578 89.3303 4.50346C89.1297 4.48242 88.9139 4.46802 88.7048 4.47381C88.0513 4.49122 87.0941 4.40236 86.4851 4.54516C86.3706 4.57204 86.1411 7.3646 86.1132 7.61919L85.3126 15.0636C85.2407 15.7462 84.9724 19.0266 84.7529 19.4254C84.3852 19.6077 81.2945 19.5807 80.8601 19.4676C80.5682 19.2319 80.6311 16.3504 80.774 15.9752C80.9864 15.7571 81.3692 15.7896 81.6825 15.7737C81.8027 14.3179 82.025 12.8788 82.1779 11.4367L82.8223 5.32703C82.943 4.15055 83.0779 2.3061 83.3343 1.12258C83.3797 0.912817 83.746 0.754362 83.9466 0.682242Z" fill="black"/>
<path d="M42.0725 0.68621C42.8722 0.643464 43.8783 0.671887 44.6937 0.67192L49.3943 0.674156C50.0307 0.675643 50.6524 0.669793 51.3083 0.67593C51.6224 0.695529 52.9014 0.519377 53.0557 0.884897C53.1716 1.15981 53.2676 4.29151 52.9691 4.38099C51.9584 4.68391 45.942 4.2331 45.4155 4.58672C45.268 4.92569 45.2914 7.77916 45.3584 8.23759C45.3706 8.32184 45.3887 8.42365 45.4699 8.46412C46.0353 8.74544 50.3974 8.26569 50.9009 8.65324C51.0083 8.73589 51.0371 8.8833 51.0527 9.01222C51.0991 9.40179 51.1346 11.7167 50.96 11.9238C50.8777 12.0215 50.7523 12.0528 50.6307 12.0678C50.1433 12.1283 49.6063 12.0856 49.1118 12.0842C47.8697 12.0808 46.6144 12.0352 45.3743 12.1097C45.3407 12.7977 45.3253 13.4865 45.3279 14.1753C45.3278 14.7421 45.3291 15.2015 45.3766 15.768C46.0655 15.8293 46.8505 15.803 47.5494 15.8015L50.8639 15.7974C51.1862 15.7971 53.0244 15.7211 53.0732 15.9897C53.2303 16.8609 53.2553 18.6015 53.0727 19.4521C52.5688 19.5731 51.6399 19.539 51.0878 19.5392L48.4673 19.5386C46.508 19.5375 44.531 19.5489 42.5705 19.5339C42.4498 19.533 42.0087 19.5042 41.9414 19.4273C41.8456 19.3181 41.8307 19.0398 41.8298 18.8929C41.8224 17.675 41.8257 16.4521 41.8258 15.2345L41.8277 8.10623L41.8246 3.55473C41.8239 2.757 41.8105 1.93656 41.8406 1.13976C41.8495 0.905263 41.8994 0.832714 42.0725 0.68621Z" fill="black"/>
<path d="M54.7076 0.683015C55.2437 0.649419 56.0012 0.669964 56.5496 0.670001L59.8538 0.670778L63.5251 0.67243C64.1587 0.672651 65.5157 0.602366 66.0627 0.783352C66.3291 1.02859 66.2898 3.97984 66.1417 4.2885C65.8346 4.63454 62.9478 4.39374 62.1094 4.53796L62.0805 15.3908C62.0701 16.6544 62.2452 18.2641 61.9764 19.4218C61.9315 19.6159 58.7854 19.5764 58.722 19.4504C58.4849 18.9774 58.5899 15.3915 58.5828 14.9207C58.5275 11.4427 58.6557 7.97727 58.5791 4.52445C58.1338 4.4523 54.63 4.57538 54.5609 4.32465C54.4161 3.79896 54.2633 1.01704 54.7076 0.683015Z" fill="black"/>
</svg>
